# xmcd
#
# Track frame offsets:
#	150
#	12605
#	23447
#	36932
#	49817
#	60312
#	71360
#	82615
#	91832
#	101685
#	112320
#	125257
#	137005
#	146782
#	158740
#	168515
#	177912
#	189852
#	202417
#	215180
#
# Disc length: 3019 seconds
# Revision: 1
# Processed by: cddbd v1.5.2PL0 Copyright (c) Steve Scherf et al.
# Submitted via: dBpowerAMP V12.0
#
DISCID=190bc914
DTITLE=Jim Reeves - The Ultimate Collection, Disc 1
DYEAR=2002
DGENRE=Country
TTITLE0=I Love You Because
TTITLE1=Welcome to My World
TTITLE2=Have You Ever Been Lonely (Have You Ever Been Blue)
TTITLE3=Have I Told You Lately That I Love You
TTITLE4=He'll Have to Go
TTITLE5=Make the World Go Away
TTITLE6=Moon River
TTITLE7=I Won't Forget You
TTITLE8=When Two Worlds Collide
TTITLE9=Memories Are Made Of This
TTITLE10=You'll Never Know
TTITLE11=Mona Lisa
TTITLE12=Oh, How I Miss You Tonight
TTITLE13=Mexican Joe
TTITLE14=It Hurts Me So Much To See You Go
TTITLE15=There's a Heartache Following Me
TTITLE16=Am I Losing You
TTITLE17=Blue Side Of Lonliness
TTITLE18=Four Walls
TTITLE19=Adios Amigo
EXTD=
EXTT0=
EXTT1=
EXTT2=
EXTT3=
EXTT4=
EXTT5=
EXTT6=
EXTT7=
EXTT8=
EXTT9=
EXTT10=
EXTT11=
EXTT12=
EXTT13=
EXTT14=
EXTT15=
EXTT16=
EXTT17=
EXTT18=
EXTT19=
PLAYORDER=
